<?xml version="1.0" encoding="utf-8"?>
<!-- Generator: Adobe Illustrator 24.0.0, SVG Export Plug-In . SVG Version: 6.00 Build 0)  -->
<svg version="1.1" id="Capa_1" xmlns="http://www.w3.org/2000/svg" xmlns:xlink="http://www.w3.org/1999/xlink" x="0px" y="0px"
	 viewBox="0 0 1920 1080" style="enable-background:new 0 0 1920 1080;" xml:space="preserve">
<style type="text/css">
	.st0{fill-rule:evenodd;clip-rule:evenodd;fill:#00FF01;}
	.st1{fill:#00FF01;}
</style>
<g id="logo">
	<path class="st0" d="M1102.67,359.9c80.04,56.81,113.2,155.01,91.44,244.97l-110.03-78.14c-41.6-29.56-80.04,24.71-115.52,10.14
		l-92.29-65.47c5.28-16.05-0.42-34.42-14.99-44.77c-17.95-12.67-43.08-8.45-55.76,9.5c-12.88,18.16-8.66,43.08,9.51,55.96
		c13.73,9.72,31.68,9.51,45.2,0.84l102.21,72.44c44.56,31.89,85.32-32.52,122.91-5.91l0.42-0.21l100.52,71.38
		c-3.59,9.08-7.39,18.16-12.04,27.03l-10.77-7.81c-18.58-13.09-35.69,10.98-51.53,4.65l-40.76-29.14
		c2.11-7.18-0.21-15.21-6.76-19.85c-8.03-5.7-19.22-3.8-24.92,4.22c-11.19,16.05,8.45,35.69,24.29,25.13l45.4,32.31
		c19.85,14.15,38.02-14.57,54.7-2.74h0.21l4.44,3.17c-3.38,5.7-6.97,11.4-10.98,16.9c-19,26.82-42.66,48.36-69.06,64.41
		c-4.86-16.47,8.03-40.12-11.62-54.27l-55.96-39.7c5.7-22.81-25.13-37.8-39.28-17.95c-6.97,9.93-4.65,23.66,5.28,30.62
		c8.02,5.7,18.37,5.28,25.76-0.42l50.48,35.9c12.25,13.72-2.32,38.01,8.87,54.91c-74.34,37.17-166.42,33.15-239.07-18.38
		c-104.75-74.55-129.46-219.85-54.91-324.81C852.42,310.06,997.93,285.36,1102.67,359.9z"/>
	<path class="st1" d="M967.63,782.92c-48.51,0-95.14-14.88-134.83-43.04c-50.75-36.12-84.42-89.82-94.82-151.21
		c-10.4-61.42,3.75-123.23,39.84-174.04c21.89-30.84,51.2-56.1,84.78-73.04c32.51-16.4,68.98-25.07,105.46-25.07
		c48.54,0,95.15,14.91,134.8,43.13c38.77,27.52,67.82,65.63,84.01,110.2c15.8,43.51,18.41,90.22,7.56,135.1l-0.11,0.45l-0.38-0.27
		L1083.91,527c-8.43-5.99-17.23-8.91-26.89-8.91c-13.49,0-26.71,5.7-39.49,11.22c-12.41,5.36-24.14,10.42-35.79,10.42
		c-4.75,0-9.1-0.84-13.29-2.56l-92.54-65.64l0.07-0.22c5.32-16.16-0.8-34.42-14.88-44.41c-6.71-4.74-14.63-7.25-22.88-7.25
		c-12.94,0-25.06,6.23-32.43,16.67c-12.71,17.92-8.48,42.82,9.43,55.52c6.71,4.75,14.63,7.26,22.9,7.26c7.8,0,15.38-2.22,21.94-6.42
		l0.18-0.11l0.18,0.12l102.21,72.44c8.49,6.08,17.34,9.03,27.06,9.03c13.47,0,26.66-5.7,39.41-11.2
		c12.39-5.35,24.1-10.41,35.74-10.41c7.53,0,14.25,2.15,20.55,6.56l0.43-0.21l0.15,0.11l100.73,71.53l-0.09,0.23
		c-3.23,8.18-7.19,17.79-12.05,27.06l-0.17,0.32l-0.3-0.21l-10.77-7.82c-3.73-2.62-7.61-3.9-11.88-3.9
		c-6.01,0-11.91,2.55-17.61,5.01c-5.57,2.41-10.84,4.68-16.08,4.68c-2.1,0-4.02-0.36-5.89-1.11l-41.01-29.31l0.06-0.22
		c2.15-7.32-0.51-15.16-6.64-19.5c-2.97-2.11-6.48-3.23-10.13-3.23c-5.7,0-11.06,2.76-14.34,7.38c-3.82,5.47-4.28,11.92-1.27,17.68
		c3.15,6.03,9.35,9.93,15.79,9.93c3.28,0,6.42-0.99,9.33-2.93l0.18-0.12l0.18,0.13l45.4,32.31c3.74,2.66,7.63,3.96,11.9,3.96
		c5.98,0,11.85-2.55,17.53-5.01c5.54-2.41,10.78-4.68,16-4.68c3.36,0,6.37,0.96,9.19,2.93h0.21l0.08,0.06l4.67,3.34l-0.15,0.25
		c-4.01,6.76-7.5,12.14-11,16.92c-18.55,26.17-41.81,47.87-69.15,64.49l-0.35,0.21l-0.12-0.39c-1.72-5.84-1.25-12.42-0.75-19.39
		c0.91-12.6,1.85-25.63-10.75-34.72l-56.14-39.82l0.05-0.21c1.62-6.49,0.32-12.88-3.68-17.99c-4.24-5.43-11.13-8.81-17.98-8.81
		c-6.82,0-12.87,3.23-17.06,9.11c-6.88,9.8-4.54,23.34,5.2,30.18c3.7,2.62,8,4.01,12.44,4.01c4.65,0,9.25-1.57,12.95-4.43l0.19-0.14
		l0.19,0.14l50.48,35.9c6.37,7.12,5.67,16.79,4.93,27.03c-0.7,9.71-1.43,19.75,4.02,27.97l0.2,0.3l-0.32,0.16
		C1039.95,774.4,1003.8,782.92,967.63,782.92z M968.06,317.15c-36.39,0-72.76,8.65-105.18,25.01
		c-33.48,16.9-62.72,42.08-84.55,72.84c-35.99,50.68-50.1,112.32-39.73,173.57c10.37,61.22,43.95,114.77,94.56,150.79
		c39.59,28.08,86.09,42.92,134.46,42.92c35.95,0,71.89-8.44,103.96-24.41c-5.35-8.34-4.63-18.37-3.93-28.07
		c0.73-10.1,1.42-19.64-4.72-26.51l-50.23-35.72c-3.78,2.85-8.44,4.42-13.15,4.42c-4.57,0-9-1.43-12.8-4.13
		c-10.03-7.04-12.44-20.98-5.36-31.06c4.31-6.05,10.55-9.38,17.58-9.38c7.04,0,14.12,3.47,18.48,9.05
		c4.07,5.22,5.43,11.72,3.84,18.33l55.79,39.58c12.89,9.29,11.94,22.5,11.02,35.28c-0.49,6.75-0.95,13.14,0.6,18.77
		c27.11-16.54,50.19-38.11,68.61-64.11c3.44-4.71,6.89-10,10.82-16.62l-4.12-2.94h-0.21l-0.08-0.06c-2.73-1.93-5.64-2.87-8.9-2.87
		c-5.09,0-10.26,2.25-15.74,4.62c-5.74,2.49-11.67,5.07-17.79,5.07c-4.41,0-8.42-1.33-12.27-4.07l-45.22-32.19
		c-2.97,1.93-6.17,2.92-9.5,2.92c-6.68,0-13.1-4.03-16.36-10.28c-3.12-5.98-2.64-12.66,1.32-18.34c3.4-4.79,8.96-7.65,14.86-7.65
		c3.78,0,7.42,1.16,10.5,3.35c6.29,4.46,9.05,12.46,6.94,19.98l40.58,29.01c1.72,0.68,3.57,1.03,5.59,1.02
		c5.12,0,10.32-2.25,15.83-4.63c5.76-2.49,11.73-5.07,17.86-5.07c4.4,0,8.41,1.32,12.25,4.02l10.48,7.6
		c4.72-9.06,8.59-18.43,11.76-26.44l-100.17-71.13l-0.42,0.21l-0.16-0.11c-6.23-4.41-12.88-6.55-20.34-6.55
		c-11.51,0-23.16,5.03-35.49,10.36c-12.81,5.53-26.06,11.25-39.66,11.25c-9.86,0-18.83-2.99-27.43-9.14l-102.04-72.31
		c-6.62,4.19-14.25,6.41-22.1,6.41c-8.41,0-16.45-2.55-23.27-7.37c-18.19-12.9-22.49-38.21-9.58-56.41
		c7.49-10.61,19.81-16.94,32.95-16.94c8.39,0,16.42,2.55,23.25,7.36c14.23,10.11,20.46,28.55,15.18,44.91l92.1,65.33
		c4.05,1.66,8.32,2.48,12.99,2.48c11.51,0,23.18-5.04,35.54-10.37c12.84-5.54,26.12-11.27,39.74-11.27c9.8,0,18.72,2.95,27.26,9.02
		l109.65,77.87c10.69-44.62,8.05-91.04-7.65-134.28c-16.14-44.45-45.11-82.46-83.78-109.9
		C1062.95,332.02,1016.47,317.15,968.06,317.15z"/>
</g>
</svg>
